<?xml version="1.0" encoding="UTF-8" standalone="no"?>
<!-- Created with Inkscape (http://www.inkscape.org/) -->

<svg
   width="178.53253mm"
   height="26.458336mm"
   viewBox="0 0 178.53252 26.458336"
   version="1.1"
   id="svg1"
   inkscape:version="1.3 (0e150ed6c4, 2023-07-21)"
   sodipodi:docname="logo-FlischeKlowa_02.svg"
   inkscape:export-filename="drawing_07.svg"
   inkscape:export-xdpi="96"
   inkscape:export-ydpi="96"
   xmlns:inkscape="http://www.inkscape.org/namespaces/inkscape"
   xmlns:sodipodi="http://sodipodi.sourceforge.net/DTD/sodipodi-0.dtd"
   xmlns="http://www.w3.org/2000/svg"
   xmlns:svg="http://www.w3.org/2000/svg">
  <sodipodi:namedview
     id="namedview1"
     pagecolor="#ffddb3"
     bordercolor="#000000"
     borderopacity="0.25"
     inkscape:showpageshadow="2"
     inkscape:pageopacity="0.0"
     inkscape:pagecheckerboard="0"
     inkscape:deskcolor="#d1d1d1"
     inkscape:document-units="mm"
     inkscape:zoom="1.9780299"
     inkscape:cx="370.57074"
     inkscape:cy="131.19114"
     inkscape:window-width="1920"
     inkscape:window-height="986"
     inkscape:window-x="-11"
     inkscape:window-y="-11"
     inkscape:window-maximized="1"
     inkscape:current-layer="layer1" />
  <defs
     id="defs1">
    <inkscape:path-effect
       effect="skeletal"
       id="path-effect90"
       is_visible="true"
       lpeversion="1"
       pattern="M 0,4.9921382 C 0,2.2364779 2.2364779,0 4.9921382,0 c 2.7556604,0 4.9921383,2.2364779 4.9921383,4.9921382 0,2.7556604 -2.2364779,4.9921383 -4.9921383,4.9921383 C 2.2364779,9.9842765 0,7.7477986 0,4.9921382 Z"
       copytype="single_stretched"
       prop_scale="1"
       scale_y_rel="false"
       spacing="0"
       normal_offset="0"
       tang_offset="0"
       prop_units="false"
       vertical_pattern="false"
       hide_knot="false"
       fuse_tolerance="0" />
    <inkscape:path-effect
       effect="bspline"
       id="path-effect89"
       is_visible="true"
       lpeversion="1.3"
       weight="33.333333"
       steps="2"
       helper_size="0"
       apply_no_weight="true"
       apply_with_weight="true"
       only_selected="false"
       uniform="false" />
    <linearGradient
       id="swatch85"
       inkscape:swatch="solid">
      <stop
         style="stop-color:#000000;stop-opacity:1;"
         offset="0"
         id="stop85" />
    </linearGradient>
    <inkscape:path-effect
       effect="fillet_chamfer"
       id="path-effect75"
       is_visible="true"
       lpeversion="1"
       nodesatellites_param="F,0,0,1,0,1.0150749,0,1 @ F,0,0,1,0,1.5553972,0,1 @ F,0,0,1,0,0,0,1 @ F,0,0,1,0,0,0,1"
       radius="0"
       unit="px"
       method="auto"
       mode="F"
       chamfer_steps="1"
       flexible="false"
       use_knot_distance="true"
       apply_no_radius="true"
       apply_with_radius="true"
       only_selected="false"
       hide_knots="false" />
    <inkscape:path-effect
       effect="fillet_chamfer"
       id="path-effect73"
       is_visible="true"
       lpeversion="1"
       nodesatellites_param="F,0,0,1,0,1.151757,0,1 @ F,0,0,1,0,1.0526597,0,1 @ F,0,0,1,0,0.95726407,0,1 @ F,0,0,1,0,0.95726407,0,1 @ F,0,0,1,0,3.7373674,0,1 @ F,0,0,1,0,5.8756953,0,1 @ F,0,0,1,0,1.5641391,0,1 @ F,0,0,1,0,0.84916738,0,1 @ F,0,0,1,0,0,0,1 @ F,0,0,1,0,2.2512937,0,1 @ F,0,0,1,0,1.698372,0,1 @ F,0,0,1,0,1.6149163,0,1 @ F,0,0,1,0,1.2675149,0,1 @ F,0,0,1,0,2.5907171,0,1"
       radius="0"
       unit="px"
       method="auto"
       mode="F"
       chamfer_steps="1"
       flexible="false"
       use_knot_distance="true"
       apply_no_radius="true"
       apply_with_radius="true"
       only_selected="false"
       hide_knots="false" />
  </defs>
  <g
     inkscape:label="Layer 1"
     inkscape:groupmode="layer"
     id="layer1"
     transform="translate(-2.6012513,-50.053795)">
    <path
       style="fill:#006400;fill-opacity:1;stroke:#006400;stroke-width:0.264583;stroke-opacity:1"
       d="m 44.442483,50.84713 7.625645,-0.217049 a 2.1786855,2.1786855 24.157732 0 1 1.729633,0.775794 l 4.273864,5.083625 a 91.707271,91.707271 50.543882 0 1 1.216591,1.478149 l 0.850063,1.055073 a 2.0483656,2.0483656 26.093802 0 0 1.557686,0.762894 l 60.435985,1.103108 a 62.577818,62.577818 4.4635214 0 1 7.4388,0.580682 9.7098077,9.7098077 40.66678 0 1 6.57531,5.649022 6.0043032,6.0043032 75.584742 0 1 0.69316,2.696694 l 0.004,0.107509 a 0.81282538,0.81282538 133.97195 0 1 -0.81537,0.845166 L 99.968498,70.626433 86.590721,90.529449 a 4.2257862,4.2257862 151.95348 0 1 -3.507169,1.868449 H 76.769509 A 1.0049087,1.0049087 59.387647 0 1 75.888692,90.909251 L 86.421784,71.730042 a 0.97250864,0.97250864 59.831803 0 0 -0.83734,-1.440534 L 57.499568,69.854047 A 4.3848473,4.3848473 17.011151 0 1 55.170795,69.141574 8.043889,8.043889 51.466181 0 1 53.013892,66.433258 L 43.901706,51.856535 a 0.65988559,0.65988559 118.17967 0 1 0.540777,-1.009405 z"
       id="path73"
       sodipodi:nodetypes="ccccccccccccccc"
       transform="matrix(0.30805594,0,0,0.29061261,-8.5969876,42.031384)"
       inkscape:original-d="m 43.291192,50.879899 9.82917,-0.279768 5.567273,6.622094 2.051225,2.545921 65.12983,1.188783 7.42032,1.027195 3.48796,6.268098 0.10032,2.518904 L 99.968498,70.626433 85.334846,92.397898 H 75.071137 L 87.199166,70.314545 56.232205,69.834396 54.387157,68.630064 Z"
       inkscape:path-effect="#path-effect73" />
    <path
       style="fill:#006400;fill-opacity:1;stroke:#006400;stroke-width:0.264583;stroke-opacity:1"
       d="m 77.190025,41.09032 3.324135,-0.06001 a 3.7270279,3.7270279 21.617957 0 1 2.668896,1.057658 L 99.992381,58.474415 86.240081,58.36169 76.686608,41.985427 a 0.59525634,0.59525634 119.35381 0 1 0.503417,-0.895107 z"
       id="path66"
       sodipodi:nodetypes="ccccc"
       inkscape:path-effect="#path-effect75"
       inkscape:original-d="m 76.175115,41.108642 5.894189,-0.106407 17.923077,17.47218 -13.7523,-0.112725 z"
       transform="matrix(0.28153278,0,0,0.35765494,-6.4719937,38.117775)" />
    <path
       style="fill:#ff0000;fill-opacity:0;stroke:none;stroke-width:0.264583;stroke-opacity:1"
       d="m 43.731801,62.295039 c 0.69342,0.01651 1.232032,1.780065 1.804589,4.929622 0.470542,2.588389 1.168271,8.112223 3.198227,11.848198 10e-7,0 2e-6,3e-6 2e-6,3e-6 1.927788,4.000238 5.48386,7.049944 10.728684,10.934488 4.19538,2.907104 9.019577,5.8746 13.996976,6.912206 3.366204,0.82956 7.05602,0.885781 11.216938,0.711413 2.425759,-0.101654 4.912087,-0.273894 7.420405,-0.387962 4.661712,-0.262039 8.747588,-0.474196 12.989328,-0.799523 4.32288,-0.341884 7.99997,-0.663639 11.57774,-1.360627 5.03041,-1.103718 8.75244,-2.732435 10.84686,-5.540741 2.37494,-2.868054 4.38637,-7.753244 5.44905,-9.97674 0,-10e-7 0,-10e-7 0,-2e-6 1.53651,-3.265939 2.66539,-5.030444 3.35962,-4.856886 0.6912,0.172799 0.87911,2.276997 0.5125,5.9242 0,0 0,10e-7 0,2e-6 -0.26043,2.724846 -0.97023,7.792217 -3.62376,12.648321 -2.92647,4.836983 -8.08525,8.549429 -14.51146,10.213379 -4.09482,1.15572 -8.23886,1.83366 -12.64641,2.38337 -4.34356,0.55 -8.708685,0.92814 -13.313321,1.26465 -2.411353,0.20373 -5.013033,0.41988 -7.685732,0.509 -4.608553,0.15368 -9.245453,-0.0778 -13.916337,-1.21051 -7.036862,-1.89726 -12.732385,-5.71129 -17.09362,-9.411225 -5.597532,-4.484187 -9.717218,-9.584511 -11.706656,-15.410865 0,-10e-7 -1e-6,-2e-6 -1e-6,-4e-6 -1.801208,-5.980225 -1.140716,-11.543352 -0.604786,-14.41589 0.603955,-3.237147 1.334016,-4.923762 2.001164,-4.907877 z"
       id="path89"
       inkscape:path-effect="#path-effect89;#path-effect90"
       inkscape:original-d="m 43.731801,62.295039 c -0.151847,6.377554 -0.303694,12.755107 -0.455541,19.132661 4.365675,4.213826 8.731176,8.427484 13.096764,12.641225 5.124923,3.112916 10.249641,6.225705 15.374461,9.338565 6.225831,-0.34167 12.451416,-0.68331 18.677122,-1.02497 10.211883,-0.72128 20.423363,-1.44254 30.635033,-2.16381 3.45458,-2.581445 6.90902,-5.162783 10.36353,-7.744174 1.32868,-4.707337 2.65731,-9.414484 3.98597,-14.121728 0.3037,-1.214795 0.60739,-2.429545 0.91108,-3.644315"
       transform="matrix(0.33987207,0,0,0.3985452,-9.2644512,30.492132)" />
    <path
       style="fill:#ffffff;fill-opacity:0;fill-rule:evenodd;stroke:#006400;stroke-width:1.07935;stroke-dasharray:none;stroke-opacity:1"
       d="M 6.7277595,72.177068 H 31.622783"
       id="path4"
       sodipodi:nodetypes="cc" />
    <rect
       style="fill:#ffffff;fill-opacity:0;fill-rule:evenodd;stroke:#006400;stroke-width:1.26603;stroke-opacity:1"
       id="rect654"
       width="31.906202"
       height="25.192307"
       x="3.2342663"
       y="50.68681"
       ry="4.8367205"
       rx="15.953101" />
    <text
       xml:space="preserve"
       style="font-style:normal;font-variant:normal;font-weight:normal;font-stretch:normal;font-size:26.4583px;font-family:Sans;-inkscape-font-specification:'Sans, Normal';font-variant-ligatures:normal;font-variant-caps:normal;font-variant-numeric:normal;font-variant-east-asian:normal;fill:#006400;fill-rule:evenodd;stroke:#006400;stroke-width:0;stroke-dasharray:none"
       x="43.018963"
       y="68.679451"
       id="text5"
       transform="scale(0.9453739,1.0577825)"
       inkscape:export-filename="logo-FlischeKlowa_20230815_01.svg"
       inkscape:export-xdpi="96"
       inkscape:export-ydpi="96"><tspan
         id="tspan5"
         style="font-style:normal;font-variant:normal;font-weight:600;font-stretch:normal;font-size:26.4583px;font-family:'Source Sans Pro';-inkscape-font-specification:'Source Sans Pro Semi-Bold';font-variant-ligatures:normal;font-variant-caps:normal;font-variant-numeric:normal;font-variant-east-asian:normal;fill:#006400;fill-opacity:1;stroke-width:0;stroke-dasharray:none"
         x="43.018963"
         y="68.679451"
         sodipodi:role="line">FlischeKlowa</tspan></text>
  </g>
</svg>
